<?xml version="1.0" encoding="iso-8859-1"?>
<!-- Generator: Adobe Illustrator 22.1.0, SVG Export Plug-In . SVG Version: 6.00 Build 0)  -->
<svg xmlns="http://www.w3.org/2000/svg" xmlns:xlink="http://www.w3.org/1999/xlink" version="1.1" id="Layer_3" x="0px" y="0px" viewBox="0 0 64 64" style="enable-background:new 0 0 64 64;" xml:space="preserve" width="512" height="512">
<g>
	<g>
		<polyline style="fill:#693D38;" points="25,32 18,34 24,42 17,54 32,55 47,54 40,42 46,34 39,32   "/>
	</g>
	<g>
		<polyline style="fill:#573332;" points="33,46 33,50 37,50 37,46   "/>
	</g>
	<g>
		<polygon style="fill:#74564A;" points="21.667,46 42.333,46 40,42 24,42   "/>
	</g>
	<g>
		<polyline style="fill:#C2B8B5;" points="41,54 40,58 35,58 35,55   "/>
	</g>
	<g>
		<polyline style="fill:#C2B8B5;" points="23,54 24,58 29,58 29,55   "/>
	</g>
	<g>
		<path style="fill:#999591;" d="M29,58h-6c-2.209,0-4,1.791-4,4v0h10V58z"/>
	</g>
	<g>
		<path style="fill:#999591;" d="M35,58h6c2.209,0,4,1.791,4,4v0H35V58z"/>
	</g>
	<g>
		<path style="fill:#C2B8B5;" d="M19,36l-8,5c-2.209,0-4,1.791-4,4s1.791,4,4,4s4-1.791,4-4l8-4"/>
	</g>
	<g>
		<path style="fill:#C2B8B5;" d="M45,36l8,5c2.209,0,4,1.791,4,4s-1.791,4-4,4s-4-1.791-4-4l-8-4"/>
	</g>
	<g>
		<polyline style="fill:#C2B8B5;" points="38,29 39,32 32,38 25,32 26,29   "/>
	</g>
	<g>
		<path style="fill:#C2B8B5;" d="M21,10L21,10c-2.518-1.889-4-4.852-4-8v0h1c3.246,0,6.404,1.053,9,3l0,0"/>
	</g>
	<g>
		<path style="fill:#C2B8B5;" d="M43,10L43,10c2.518-1.889,4-4.852,4-8v0h-1c-3.246,0-6.404,1.053-9,3l0,0"/>
	</g>
	<g>
		<path style="fill:#999591;" d="M44,29l3-1l-2-6h3l-3-5c0-7.18-5.82-13-13-13h0c-7.18,0-13,5.82-13,13l-3,5h3l-2,6l3,1h7l5,2l5-2    H44z"/>
	</g>
	<g>
		<path style="fill:#657B88;" d="M35,24c0,1.105-1.343,3-3,3c-1.657,0-3-1.895-3-3s1.343-1,3-1C33.657,23,35,22.895,35,24z"/>
	</g>
	<g>
		<path style="fill:#D1D8DB;" d="M30,17l-6-2v2c0,1.657,1.343,3,3,3h0C28.657,20,30,18.657,30,17L30,17z"/>
	</g>
	<g>
		<path style="fill:#D1D8DB;" d="M34,17l6-2v2c0,1.657-1.343,3-3,3h0C35.343,20,34,18.657,34,17L34,17z"/>
	</g>
	<g>
		<path d="M32,32c-0.126,0-0.252-0.024-0.371-0.071L26.808,30H20c-0.107,0-0.214-0.017-0.316-0.051l-3-1    c-0.523-0.175-0.807-0.741-0.632-1.265L17.612,23H16c-0.36,0-0.692-0.194-0.87-0.507s-0.173-0.698,0.013-1.007l2.86-4.767    C18.153,9.128,24.375,3,32,3s13.847,6.128,13.997,13.718l2.86,4.767c0.186,0.309,0.19,0.694,0.013,1.007S48.36,23,48,23h-1.612    l1.561,4.684c0.175,0.524-0.108,1.09-0.632,1.265l-3,1C44.214,29.983,44.107,30,44,30h-6.808l-4.821,1.929    C32.252,31.976,32.126,32,32,32z M20.162,28H27c0.127,0,0.253,0.024,0.371,0.071L32,29.923l4.629-1.852    C36.747,28.024,36.873,28,37,28h6.838l1.897-0.632l-1.684-5.051c-0.103-0.305-0.051-0.64,0.137-0.901    C44.377,21.154,44.679,21,45,21h1.233l-2.091-3.485C44.049,17.359,44,17.181,44,17c0-6.617-5.383-12-12-12s-12,5.383-12,12    c0,0.181-0.049,0.359-0.143,0.515L17.767,21H19c0.321,0,0.623,0.154,0.812,0.416c0.188,0.261,0.239,0.596,0.137,0.901    l-1.684,5.051L20.162,28z"/>
	</g>
	<g>
		<path d="M27,21c-2.206,0-4-1.794-4-4v-2c0-0.321,0.154-0.623,0.415-0.811c0.261-0.189,0.597-0.238,0.901-0.138l6,2    C30.725,16.188,31,16.569,31,17C31,19.206,29.206,21,27,21z M25,16.387V17c0,1.103,0.897,2,2,2c0.864,0,1.602-0.55,1.881-1.319    L25,16.387z"/>
	</g>
	<g>
		<path d="M37,21c-2.206,0-4-1.794-4-4c0-0.431,0.275-0.812,0.684-0.949l6-2c0.304-0.101,0.639-0.051,0.901,0.138    C40.846,14.377,41,14.679,41,15v2C41,19.206,39.206,21,37,21z M35.119,17.681C35.398,18.45,36.136,19,37,19c1.103,0,2-0.897,2-2    v-0.613L35.119,17.681z"/>
	</g>
	<g>
		<path d="M32,28c-2.282,0-4-2.427-4-4c0-0.664,0.283-1.085,0.521-1.321c0.696-0.692,1.799-0.687,3.088-0.68L32,22l0.392-0.001    c1.287-0.008,2.392-0.012,3.088,0.68C35.717,22.915,36,23.336,36,24C36,25.573,34.282,28,32,28z M30.008,24.079    C30.098,24.76,31.019,26,32,26c0.991,0,1.922-1.266,1.995-1.92c-0.316-0.088-1.073-0.086-1.594-0.081L32,24l-0.401-0.001    C31.081,23.997,30.328,23.992,30.008,24.079z"/>
	</g>
	<g>
		<path d="M32,15c-0.256,0-0.512-0.098-0.707-0.293l-2.019-2.019l-0.38,0.759c-0.133,0.265-0.376,0.458-0.665,0.526    c-0.289,0.067-0.592,0.005-0.829-0.173l-4-3L24.6,9.2l3.042,2.281l0.464-0.928c0.144-0.288,0.417-0.488,0.734-0.54    c0.321-0.05,0.641,0.054,0.867,0.28L32,12.586l2.293-2.293c0.226-0.227,0.544-0.333,0.867-0.28    c0.317,0.052,0.591,0.252,0.734,0.54l0.464,0.928L39.4,9.2l1.199,1.6l-4,3c-0.238,0.179-0.543,0.242-0.829,0.173    c-0.289-0.068-0.532-0.261-0.665-0.526l-0.38-0.759l-2.019,2.019C32.512,14.902,32.256,15,32,15z"/>
	</g>
	<g>
		<path d="M20.399,10.8C17.645,8.733,16,5.443,16,2c0-0.552,0.447-1,1-1h1c3.438,0,6.849,1.136,9.6,3.2L26.4,5.8    c-2.393-1.794-5.354-2.787-8.344-2.8c0.277,2.444,1.558,4.71,3.544,6.2L20.399,10.8z"/>
	</g>
	<g>
		<path d="M43.601,10.8l-1.201-1.6c1.986-1.49,3.267-3.756,3.544-6.2c-2.989,0.013-5.951,1.006-8.344,2.8L36.4,4.2    C39.151,2.136,42.562,1,46,1h1c0.553,0,1,0.448,1,1C48,5.443,46.355,8.733,43.601,10.8z"/>
	</g>
	<g>
		<path d="M22.553,7.895l-0.342-0.171C20.848,7.042,20,5.671,20,4.146V2h2v2.146c0,0.762,0.424,1.448,1.105,1.789l0.342,0.171    L22.553,7.895z"/>
	</g>
	<g>
		<path d="M41.447,7.895l-0.895-1.789l0.342-0.171C41.576,5.594,42,4.908,42,4.146V2h2v2.146c0,1.525-0.848,2.896-2.211,3.578    L41.447,7.895z"/>
	</g>
	<g>
		<path d="M31.35,38.759l-7-6c-0.31-0.265-0.427-0.69-0.298-1.076l1-3l1.896,0.633l-0.787,2.362l6.489,5.562L31.35,38.759z"/>
	</g>
	<g>
		<path d="M32,56c-0.022,0-0.044-0.001-0.066-0.002l-15-1c-0.346-0.023-0.654-0.223-0.816-0.529    c-0.163-0.306-0.155-0.673,0.019-0.973l6.666-11.427L17.2,34.6c-0.197-0.263-0.253-0.607-0.148-0.919    c0.105-0.312,0.357-0.552,0.674-0.643l7-2l0.549,1.923l-5.603,1.601L24.8,41.4c0.241,0.322,0.267,0.757,0.064,1.104l-6.188,10.605    L32,53.998l13.323-0.888l-6.188-10.605c-0.202-0.347-0.177-0.782,0.064-1.104l5.128-6.837l-5.603-1.601l0.549-1.923l7,2    c0.316,0.09,0.568,0.331,0.674,0.643c0.104,0.312,0.049,0.656-0.148,0.919l-5.602,7.469l6.666,11.427    c0.174,0.299,0.182,0.667,0.019,0.973c-0.162,0.306-0.471,0.506-0.816,0.529l-15,1C32.044,55.999,32.022,56,32,56z"/>
	</g>
	<g>
		<path d="M32,42h-2v-3c0-0.289,0.124-0.562,0.342-0.752l7.499-6.562l-0.789-2.369l1.896-0.633l1,3    c0.128,0.382,0.014,0.804-0.29,1.069L32,39.454V42z"/>
	</g>
	<g>
		<rect x="24" y="41" width="16" height="2"/>
	</g>
	<g>
		<rect x="22" y="45" width="20" height="2"/>
	</g>
	<g>
		<path d="M29,63H19c-0.553,0-1-0.448-1-1c0-2.757,2.243-5,5-5h6c0.553,0,1,0.448,1,1v4C30,62.552,29.553,63,29,63z M20.171,61H28    v-2h-5C21.696,59,20.584,59.836,20.171,61z"/>
	</g>
	<g>
		<rect x="28" y="55" width="2" height="3"/>
	</g>
	<g>
		<rect x="22.5" y="53.938" transform="matrix(0.9701 -0.2425 0.2425 0.9701 -12.8803 7.3716)" width="1.999" height="4.123"/>
	</g>
	<g>
		<path d="M45,63H35c-0.553,0-1-0.448-1-1v-4c0-0.552,0.447-1,1-1h6c2.757,0,5,2.243,5,5C46,62.552,45.553,63,45,63z M36,61h7.829    c-0.413-1.164-1.525-2-2.829-2h-5V61z"/>
	</g>
	<g>
		<rect x="34" y="55" width="2" height="3"/>
	</g>
	<g>
		<rect x="38.438" y="55" transform="matrix(0.2428 -0.9701 0.9701 0.2428 -23.6568 81.6936)" width="4.123" height="1.999"/>
	</g>
	<g>
		<path d="M11,50c-2.757,0-5-2.243-5-5c0-2.656,2.082-4.835,4.699-4.991l7.771-4.857l1.061,1.696l-8,5    C11.371,41.947,11.188,42,11,42c-1.654,0-3,1.346-3,3s1.346,3,3,3s3-1.346,3-3c0-0.379,0.214-0.725,0.553-0.895l8-4l0.895,1.789    l-7.488,3.744C15.645,48.095,13.541,50,11,50z"/>
	</g>
	<g>
		<path d="M53,50c-2.541,0-4.645-1.905-4.959-4.362l-7.488-3.744l0.895-1.789l8,4C49.786,44.275,50,44.621,50,45    c0,1.654,1.346,3,3,3s3-1.346,3-3s-1.346-3-3-3c-0.188,0-0.371-0.053-0.53-0.152l-8-5l1.061-1.696l7.771,4.857    C55.918,40.165,58,42.344,58,45C58,47.757,55.757,50,53,50z"/>
	</g>
	<g>
		<rect x="7.379" y="45.5" transform="matrix(0.7071 -0.7071 0.7071 0.7071 -30.098 20.337)" width="4.243" height="2"/>
	</g>
	<g>
		<rect x="53.5" y="44.379" transform="matrix(0.7071 -0.7071 0.7071 0.7071 -16.9178 52.1569)" width="2" height="4.243"/>
	</g>
	<g>
		<path d="M37,51h-4c-0.553,0-1-0.448-1-1v-4h2v3h2v-3h2v4C38,50.552,37.553,51,37,51z"/>
	</g>
</g>
</svg>
